<svg id="Layer_1" data-name="Layer 1" xmlns="http://www.w3.org/2000/svg" viewBox="0 0 78.07 38.39"><title>logoweb</title><path d="M12,6.77v1H7.8v2.81h4v1H7.8v3.79H6.7V6.77Z"/><path d="M14.65,14.2a2.91,2.91,0,0,0,1.69.4,3.23,3.23,0,0,0,.95-.12,1.72,1.72,0,0,0,.6-.34,1.25,1.25,0,0,0,.33-.49,2,2,0,0,0,.09-.59,2,2,0,0,0-.06-.49,1.06,1.06,0,0,0-.23-.43,1.62,1.62,0,0,0-.48-.33,3.25,3.25,0,0,0-.79-.23l-1.08-.19a6.07,6.07,0,0,1-1.12-.29,2.81,2.81,0,0,1-.84-.46,1.7,1.7,0,0,1-.51-.7,2.59,2.59,0,0,1-.18-1,2,2,0,0,1,.25-1,2.16,2.16,0,0,1,.66-.75,2.85,2.85,0,0,1,1-.44,4.92,4.92,0,0,1,1.25-.15,4.78,4.78,0,0,1,1.42.19,2.57,2.57,0,0,1,.93.5,2,2,0,0,1,.54.71,3.61,3.61,0,0,1,.28.82l-1,.21a2.67,2.67,0,0,0-.24-.64,1.31,1.31,0,0,0-.4-.47,1.52,1.52,0,0,0-.6-.28,3.23,3.23,0,0,0-.88-.1,3.84,3.84,0,0,0-1,.11,1.81,1.81,0,0,0-.64.29,1.06,1.06,0,0,0-.34.45,1.4,1.4,0,0,0-.1.54,1.55,1.55,0,0,0,.08.55,1,1,0,0,0,.26.4,1.3,1.3,0,0,0,.49.29,4,4,0,0,0,.74.2l1.2.22a3.77,3.77,0,0,1,1.95.83,2.22,2.22,0,0,1,.63,1.71,2.39,2.39,0,0,1-.2,1,2.16,2.16,0,0,1-.59.79,2.86,2.86,0,0,1-1,.53,4.38,4.38,0,0,1-1.38.19A5.81,5.81,0,0,1,15,15.4a3.16,3.16,0,0,1-1.07-.47,2.42,2.42,0,0,1-.73-.83,3,3,0,0,1-.34-1.2h1.1A1.88,1.88,0,0,0,14.65,14.2Z"/><path d="M21.7,13.93v1.4H20.5v-1.4Z"/><path d="M24.09,9.36l-.46-.78L26.1,7.05h1v8.28H26V8.21Z"/><path d="M31.49,13.93v1.4h-1.2v-1.4Z"/><path d="M33.54,14.5a5.42,5.42,0,0,1-.8-3.3,8,8,0,0,1,.21-2,4,4,0,0,1,.62-1.37,2.45,2.45,0,0,1,1-.79,2.89,2.89,0,0,1,1.27-.26,2.84,2.84,0,0,1,1.26.26,2.32,2.32,0,0,1,1,.79,4,4,0,0,1,.6,1.37,8.57,8.57,0,0,1,.2,2,8.54,8.54,0,0,1-.2,2A4,4,0,0,1,38,14.5a2.45,2.45,0,0,1-1,.79,3.13,3.13,0,0,1-1.29.26A2.63,2.63,0,0,1,33.54,14.5Zm3.15-.12a1.76,1.76,0,0,0,.59-.67,3.66,3.66,0,0,0,.32-1.07,9,9,0,0,0,.1-1.44,8.87,8.87,0,0,0-.1-1.44,3.63,3.63,0,0,0-.32-1.08A1.72,1.72,0,0,0,36.69,8a1.62,1.62,0,0,0-.91-.23,1.67,1.67,0,0,0-.91.23,1.72,1.72,0,0,0-.59.68A3.36,3.36,0,0,0,34,9.76a8.79,8.79,0,0,0-.11,1.44A9,9,0,0,0,34,12.64a3.38,3.38,0,0,0,.32,1.07,1.76,1.76,0,0,0,.59.67,1.67,1.67,0,0,0,.91.23A1.62,1.62,0,0,0,36.69,14.38Z"/><path d="M11.53,20.62v1H7.32V24.4h3.94v1H7.32v3.79H6.21V20.62Z"/><path d="M15.73,29a2.53,2.53,0,0,1-1.28.3,3.26,3.26,0,0,1-.86-.11,1.94,1.94,0,0,1-.67-.35,1.57,1.57,0,0,1-.44-.58,1.94,1.94,0,0,1-.16-.82,1.79,1.79,0,0,1,.27-1,1.81,1.81,0,0,1,.72-.62,3.49,3.49,0,0,1,1-.33,10.58,10.58,0,0,1,1.16-.12l1.07,0V25.1A1.62,1.62,0,0,0,16.22,24a1.43,1.43,0,0,0-1.09-.35,1.93,1.93,0,0,0-1.09.24,1.16,1.16,0,0,0-.46.68l-.95-.11a1.8,1.8,0,0,1,.81-1.24,3.27,3.27,0,0,1,1.72-.39A3.73,3.73,0,0,1,16.3,23a1.89,1.89,0,0,1,.75.47,1.67,1.67,0,0,1,.41.74,3.46,3.46,0,0,1,.13,1v4h-1v-.86A2.8,2.8,0,0,1,15.73,29Zm-.17-2.92a5.78,5.78,0,0,0-1.06.13,1.86,1.86,0,0,0-.66.25,1,1,0,0,0-.35.4,1.4,1.4,0,0,0-.1.56,1,1,0,0,0,.28.75,1.32,1.32,0,0,0,.93.28A2.06,2.06,0,0,0,16,28a1.59,1.59,0,0,0,.52-1.25v-.69Z"/><path d="M20.39,28.28a2.36,2.36,0,0,0,1.19.26,1.82,1.82,0,0,0,1.13-.27.88.88,0,0,0,.33-.72,1.27,1.27,0,0,0-.05-.34.6.6,0,0,0-.16-.29,1.26,1.26,0,0,0-.33-.22,2.9,2.9,0,0,0-.57-.15l-.79-.12a5.94,5.94,0,0,1-.92-.22,2.21,2.21,0,0,1-.67-.34,1.25,1.25,0,0,1-.42-.52,1.79,1.79,0,0,1-.14-.73,1.6,1.6,0,0,1,.19-.77,1.58,1.58,0,0,1,.52-.57,2.33,2.33,0,0,1,.78-.36,3.35,3.35,0,0,1,1-.13,4.36,4.36,0,0,1,1.12.13,2.22,2.22,0,0,1,.74.36,1.91,1.91,0,0,1,.45.54,3.71,3.71,0,0,1,.24.66l-.95.16a2.63,2.63,0,0,0-.19-.44,1,1,0,0,0-.29-.32,1.18,1.18,0,0,0-.44-.19,2.36,2.36,0,0,0-.64-.07,2.86,2.86,0,0,0-.72.08,1.23,1.23,0,0,0-.46.21.75.75,0,0,0-.25.29.8.8,0,0,0-.07.34,1.23,1.23,0,0,0,.05.35.56.56,0,0,0,.18.26,1.21,1.21,0,0,0,.36.2,4.13,4.13,0,0,0,.58.14l.9.15a3,3,0,0,1,1.57.62,1.66,1.66,0,0,1,.47,1.29,1.57,1.57,0,0,1-.62,1.31,2.37,2.37,0,0,1-.78.38,4,4,0,0,1-1.09.14,4.9,4.9,0,0,1-1.05-.11,2.86,2.86,0,0,1-.86-.34,1.78,1.78,0,0,1-.6-.62,2.07,2.07,0,0,1-.26-.94h1A1.2,1.2,0,0,0,20.39,28.28Z"/><path d="M24.84,23.81V23h1v-1.7h1V23h1.64v.82H26.84v3.64a1.26,1.26,0,0,0,.2.73.75.75,0,0,0,.63.27,3.13,3.13,0,0,0,.46,0l.37-.1.18.81a3.74,3.74,0,0,1-.53.13,3.16,3.16,0,0,1-.66.06,1.87,1.87,0,0,1-.85-.16,1.24,1.24,0,0,1-.52-.44,1.77,1.77,0,0,1-.26-.69,5.71,5.71,0,0,1-.06-.86V23.81Z"/><path d="M31.08,28.05a2.94,2.94,0,0,0,1.7.4,3.11,3.11,0,0,0,.94-.12,1.87,1.87,0,0,0,.61-.34,1.13,1.13,0,0,0,.32-.49,1.89,1.89,0,0,0,0-1.08,1,1,0,0,0-.24-.43,1.55,1.55,0,0,0-.48-.33,3,3,0,0,0-.78-.23l-1.08-.19A6.19,6.19,0,0,1,31,25a2.64,2.64,0,0,1-.83-.46,1.81,1.81,0,0,1-.52-.7,2.79,2.79,0,0,1-.17-1,2.12,2.12,0,0,1,.24-1,2.3,2.3,0,0,1,.67-.75,3,3,0,0,1,1-.44,5,5,0,0,1,1.25-.14,4.77,4.77,0,0,1,1.42.18,2.73,2.73,0,0,1,.93.5,2.31,2.31,0,0,1,.55.71,4.42,4.42,0,0,1,.28.82l-1,.21a3.16,3.16,0,0,0-.25-.64,1.38,1.38,0,0,0-.39-.47,1.81,1.81,0,0,0-.61-.28,3.15,3.15,0,0,0-.87-.1,3.92,3.92,0,0,0-1,.11,1.84,1.84,0,0,0-.63.29,1.15,1.15,0,0,0-.35.45,1.62,1.62,0,0,0-.1.54,1.82,1.82,0,0,0,.08.55,1.06,1.06,0,0,0,.26.41,1.54,1.54,0,0,0,.49.28,3.72,3.72,0,0,0,.74.2l1.2.22a3.93,3.93,0,0,1,2,.83,2.25,2.25,0,0,1,.62,1.71,2.28,2.28,0,0,1-.2,1,2.1,2.1,0,0,1-.58.78,3,3,0,0,1-1,.53,4.38,4.38,0,0,1-1.38.19,5.81,5.81,0,0,1-1.37-.15,3.22,3.22,0,0,1-1.08-.47A2.55,2.55,0,0,1,29.6,28a3.12,3.12,0,0,1-.33-1.2h1.1A1.84,1.84,0,0,0,31.08,28.05Z"/><path d="M41.88,28.86a2.9,2.9,0,0,1-1.84.52,2.74,2.74,0,0,1-2.17-.86,3.51,3.51,0,0,1-.76-2.39,4.47,4.47,0,0,1,.22-1.43,2.79,2.79,0,0,1,.6-1,2.65,2.65,0,0,1,.93-.65A3.26,3.26,0,0,1,40,22.79a3,3,0,0,1,1.23.23,2.18,2.18,0,0,1,.85.63,2.76,2.76,0,0,1,.49,1,4.29,4.29,0,0,1,.16,1.22v.52h-4.6a3,3,0,0,0,.12.87,2.43,2.43,0,0,0,.36.7,1.68,1.68,0,0,0,.59.46,1.85,1.85,0,0,0,.8.17,1.77,1.77,0,0,0,1.14-.3,1.47,1.47,0,0,0,.49-.79h1A2.23,2.23,0,0,1,41.88,28.86Zm-.25-4.1a1.56,1.56,0,0,0-.3-.62,1.39,1.39,0,0,0-.52-.4A1.87,1.87,0,0,0,40,23.6a1.65,1.65,0,0,0-1.29.5,2.43,2.43,0,0,0-.55,1.46h3.54A2.87,2.87,0,0,0,41.63,24.76Z"/><path d="M48.71,28.77a2.64,2.64,0,0,1-1.85.61,3.29,3.29,0,0,1-1.26-.23,2.41,2.41,0,0,1-.91-.65,2.87,2.87,0,0,1-.55-1A4.38,4.38,0,0,1,44,26.1a4.15,4.15,0,0,1,.21-1.35,3,3,0,0,1,.58-1.05,2.78,2.78,0,0,1,.94-.67,3.1,3.1,0,0,1,1.25-.24,2.45,2.45,0,0,1,1.72.55,2.48,2.48,0,0,1,.78,1.5l-1,.2a3.05,3.05,0,0,0-.16-.56,1.39,1.39,0,0,0-.28-.43,1.21,1.21,0,0,0-.44-.29,1.65,1.65,0,0,0-.62-.1,1.8,1.8,0,0,0-.84.18,1.67,1.67,0,0,0-.57.52,2.32,2.32,0,0,0-.32.77,4.13,4.13,0,0,0-.1.95,4.86,4.86,0,0,0,.09,1,2.54,2.54,0,0,0,.31.77,1.67,1.67,0,0,0,.57.52,1.7,1.7,0,0,0,.85.19A1.46,1.46,0,0,0,48,28.13a1.93,1.93,0,0,0,.47-1h1.06A2.74,2.74,0,0,1,48.71,28.77Z"/><path d="M51.87,23v3.9a2.1,2.1,0,0,0,.28,1.23,1.11,1.11,0,0,0,.92.36A1.81,1.81,0,0,0,54.33,28a2.1,2.1,0,0,0,.46-.55,1.7,1.7,0,0,0,.15-.77V23H56v6.2H55v-1a2.92,2.92,0,0,1-1,.87,2.46,2.46,0,0,1-1.14.28,1.89,1.89,0,0,1-1.53-.57,2.66,2.66,0,0,1-.47-1.71V23Z"/><path d="M58.63,23v1a2.64,2.64,0,0,1,.81-.79,2,2,0,0,1,1-.27,2.88,2.88,0,0,1,.55,0l-.13,1-.24,0h-.26a1.74,1.74,0,0,0-.59.1,1.69,1.69,0,0,0-.57.34,1.76,1.76,0,0,0-.41.53,1.52,1.52,0,0,0-.15.69v3.69h-1V23Z"/><path d="M63.09,20.62v1.21H62V20.62Zm0,2.37v6.2H62V23Z"/><path d="M64.09,23.81V23h1v-1.7h1V23h1.65v.82H66.09v3.64a1.19,1.19,0,0,0,.21.73.72.72,0,0,0,.62.27,3,3,0,0,0,.46,0,3.29,3.29,0,0,0,.37-.1l.18.81a4,4,0,0,1-.52.13,3.26,3.26,0,0,1-.67.06,1.87,1.87,0,0,1-.85-.16,1.24,1.24,0,0,1-.52-.44,1.62,1.62,0,0,1-.25-.69,4.61,4.61,0,0,1-.07-.86V23.81Z"/><path d="M69.72,30.63a.84.84,0,0,0,.59-.2,2,2,0,0,0,.41-.74L71,29l-2.63-6h1.21l2,4.86L73.3,23h1.15l-2.71,6.78a7.65,7.65,0,0,1-.33.74,4,4,0,0,1-.37.55,1.39,1.39,0,0,1-.49.34,2,2,0,0,1-.69.11,4.17,4.17,0,0,1-.52,0,3,3,0,0,1-.5-.14l.2-.83A2,2,0,0,0,69.72,30.63Z"/></svg>