<svg id="Layer_1" data-name="Layer 1" xmlns="http://www.w3.org/2000/svg" viewBox="0 0 100 40"><title>logomobile</title><path d="M21.62,6.55V9.47H9v8.42H20.82v3H9V32.26H5.67V6.55Z"/><path d="M27.43,28.85a8.81,8.81,0,0,0,5.1,1.21,9.07,9.07,0,0,0,2.82-.38,4.94,4.94,0,0,0,1.82-1,3.47,3.47,0,0,0,1-1.47,5.58,5.58,0,0,0,.29-1.78A5.84,5.84,0,0,0,38.25,24a2.94,2.94,0,0,0-.7-1.28,4.65,4.65,0,0,0-1.44-1A9.43,9.43,0,0,0,33.75,21l-3.24-.58a18.69,18.69,0,0,1-3.38-.86,8.39,8.39,0,0,1-2.51-1.39,5.32,5.32,0,0,1-1.54-2.1A8,8,0,0,1,22.56,13a6.31,6.31,0,0,1,.73-3.1,6.78,6.78,0,0,1,2-2.23,8.79,8.79,0,0,1,3-1.33A15.29,15.29,0,0,1,32,5.91a14,14,0,0,1,4.27.55A8,8,0,0,1,39.08,8a6.46,6.46,0,0,1,1.64,2.14,12.41,12.41,0,0,1,.84,2.47l-3.09.61a9.7,9.7,0,0,0-.74-1.93,4.25,4.25,0,0,0-1.19-1.4A5.2,5.2,0,0,0,34.72,9a10.39,10.39,0,0,0-2.63-.29,11.22,11.22,0,0,0-3,.33,5.38,5.38,0,0,0-1.91.88,3.1,3.1,0,0,0-1,1.33,4.31,4.31,0,0,0-.31,1.64,5.1,5.1,0,0,0,.24,1.64,2.86,2.86,0,0,0,.79,1.22,4.21,4.21,0,0,0,1.46.86,13.26,13.26,0,0,0,2.23.6l3.6.65a11.66,11.66,0,0,1,5.87,2.5A6.69,6.69,0,0,1,42,25.49a7.07,7.07,0,0,1-.6,2.9,6.47,6.47,0,0,1-1.76,2.35,8.47,8.47,0,0,1-2.93,1.59,13.54,13.54,0,0,1-4.14.57,17.54,17.54,0,0,1-4.13-.45A9.35,9.35,0,0,1,25.18,31,7.28,7.28,0,0,1,23,28.55,9.09,9.09,0,0,1,22,25h3.31A5.58,5.58,0,0,0,27.43,28.85Z"/><path d="M52.47,28v4.22h-3.6V28Z"/><path d="M58.09,14.33,56.72,12l7.41-4.61h2.92V32.26H63.81V10.87Z"/><path d="M75.51,28v4.22h-3.6V28Z"/><path d="M79.49,29.75q-2.4-3.15-2.4-9.91A23.54,23.54,0,0,1,77.74,14a11.6,11.6,0,0,1,1.86-4.1,7.52,7.52,0,0,1,2.89-2.4,9.18,9.18,0,0,1,3.82-.77,9.08,9.08,0,0,1,3.8.77A7.31,7.31,0,0,1,93,9.87,11.73,11.73,0,0,1,94.73,14a24.68,24.68,0,0,1,.61,5.87,24.5,24.5,0,0,1-.61,5.85,11.35,11.35,0,0,1-1.8,4.06A7.37,7.37,0,0,1,90,32.13a9.22,9.22,0,0,1-3.87.77A7.9,7.9,0,0,1,79.49,29.75ZM89,29.39a5,5,0,0,0,1.77-2,11,11,0,0,0,1-3.22A28.08,28.08,0,0,0,92,19.84a27.89,27.89,0,0,0-.31-4.32,11.27,11.27,0,0,0-1-3.24,4.63,4.63,0,0,0-4.48-2.74,5.14,5.14,0,0,0-2.74.7,5,5,0,0,0-1.78,2,11.27,11.27,0,0,0-1,3.24,26.7,26.7,0,0,0-.31,4.32,26.88,26.88,0,0,0,.31,4.32,11,11,0,0,0,1,3.22,4.93,4.93,0,0,0,1.78,2,5.05,5.05,0,0,0,2.74.71A4.9,4.9,0,0,0,89,29.39Z"/></svg>